<svg xmlns="http://www.w3.org/2000/svg" width="494" height="80"><path fill="none" d="M35 14h585v71H35z"/><g fill="#FFF"><path d="M57.104 38.119h18.792v22.464c-2.016 1.682-4.428 2.905-7.236 3.673-2.808.767-5.58 1.151-8.316 1.151-3.217 0-6.205-.504-8.964-1.512a18.393 18.393 0 01-7.164-4.716c-2.016-2.136-3.6-4.86-4.752-8.172-1.152-3.312-1.728-7.248-1.728-11.809 0-4.752.684-8.795 2.052-12.132 1.368-3.336 3.168-6.048 5.4-8.136s4.74-3.601 7.524-4.536c2.783-.937 5.616-1.404 8.496-1.404s5.411.216 7.596.648c2.184.432 3.924.889 5.22 1.368l-2.016 8.279c-1.2-.479-2.544-.852-4.032-1.115-1.488-.264-3.384-.396-5.688-.396-2.064 0-3.96.312-5.688.936-1.728.625-3.229 1.646-4.5 3.061-1.272 1.416-2.257 3.229-2.952 5.436-.696 2.209-1.044 4.896-1.044 8.064 0 3.024.335 5.628 1.008 7.812.672 2.186 1.608 3.985 2.808 5.4 1.199 1.416 2.604 2.46 4.212 3.132 1.608.673 3.323 1.008 5.148 1.008 1.248 0 2.472-.155 3.672-.468 1.199-.312 2.207-.779 3.024-1.404v-9.504l-10.872-1.151v-5.977zm26.063-24.12a52.197 52.197 0 013.42-.359 99.11 99.11 0 013.924-.216 232.75 232.75 0 013.924-.108c1.271-.023 2.412-.036 3.42-.036 4.464 0 8.28.624 11.448 1.872 3.168 1.249 5.735 3 7.704 5.256 1.967 2.257 3.407 4.944 4.32 8.064.911 3.12 1.368 6.552 1.368 10.296 0 3.408-.432 6.696-1.296 9.864-.864 3.168-2.304 5.976-4.32 8.424-2.016 2.447-4.668 4.416-7.956 5.903-3.288 1.487-7.356 2.232-12.204 2.232-.768 0-1.789-.024-3.06-.072a254.004 254.004 0 01-3.96-.18 780.145 780.145 0 01-3.924-.216c-1.249-.072-2.185-.156-2.808-.252V13.999zm15.48 8.064a72.16 72.16 0 00-3.204.072c-1.08.048-1.885.12-2.412.216v33.768c.191.049.515.085.972.108.456.024.947.048 1.476.072l1.512.071c.479.025.839.036 1.08.036 2.783 0 5.1-.491 6.948-1.476 1.847-.983 3.312-2.292 4.392-3.924s1.836-3.516 2.268-5.652c.432-2.136.648-4.331.648-6.588a31.32 31.32 0 00-.576-5.94c-.385-1.991-1.092-3.779-2.124-5.363-1.033-1.584-2.437-2.881-4.212-3.889-1.776-1.007-4.031-1.511-6.768-1.511zm62.999 42.336H129.75v-50.4h9.864v41.616h22.032v8.784zm11.953-22.248l.936 8.928h.288l1.008-9.071 8.784-28.009h6.48l8.64 28.152 1.008 8.928h.288l1.102-9.071 6.243-28.009h9.864L204.343 64.76h-6.624l-9-28.009-1.224-7.703h-.36l-1.224 7.775-8.928 27.937h-6.984l-13.824-50.761h10.728l6.696 28.152zm48.96-28.152h29.881v8.784h-20.017V34.52h18.216v8.784h-18.216v12.312h20.376V64.4h-30.24V13.999zm71.495 11.736c0 1.249-.155 2.496-.466 3.744a10.304 10.304 0 01-1.539 3.42c-.715 1.033-1.646 1.944-2.791 2.736-1.145.792-2.529 1.38-4.151 1.764v.432c1.433.241 2.794.648 4.083 1.225s2.412 1.368 3.367 2.376 1.707 2.231 2.256 3.672c.55 1.439.825 3.145.825 5.112 0 2.592-.552 4.836-1.655 6.731a13.688 13.688 0 01-4.429 4.645c-1.849 1.2-3.948 2.088-6.3 2.664a30.521 30.521 0 01-7.271.863h-3.133c-1.272 0-2.641-.036-4.104-.107a99.21 99.21 0 01-4.465-.324 32.09 32.09 0 01-4.14-.648V14.36a91.672 91.672 0 013.132-.432 74.209 74.209 0 013.78-.36c1.343-.096 2.724-.168 4.14-.216s2.82-.072 4.213-.072c2.351 0 4.644.18 6.875.54 2.232.36 4.224.997 5.977 1.908a10.959 10.959 0 014.212 3.815c1.055 1.633 1.584 3.697 1.584 6.192zm-21.096 9.432c.671 0 1.451-.023 2.34-.07a20.85 20.85 0 002.196-.214c1.823-.569 3.395-1.424 4.716-2.565 1.319-1.14 1.979-2.636 1.979-4.488 0-1.235-.24-2.256-.72-3.063a5.458 5.458 0 00-1.907-1.924c-.793-.475-1.693-.807-2.701-.997a17.164 17.164 0 00-3.168-.285c-1.248 0-2.4.024-3.455.072-1.057.047-1.873.118-2.449.212v13.323h3.169zm3.122 21.673c1.179 0 2.322-.143 3.429-.428s2.085-.725 2.935-1.318a6.921 6.921 0 002.049-2.246c.518-.902.777-1.972.777-3.207 0-1.568-.307-2.804-.919-3.706a6.277 6.277 0 00-2.404-2.103c-.989-.499-2.097-.82-3.321-.963a31.917 31.917 0 00-3.675-.214h-5.161v13.757c.236.096.613.166 1.131.214a32.33 32.33 0 001.661.106c.589.024 1.201.049 1.838.072s1.189.036 1.66.036zm60.741 5.496c-1.537 1.096-3.492 1.881-5.868 2.357a37.116 37.116 0 01-7.309.714c-3.023 0-5.893-.468-8.604-1.404-2.713-.936-5.101-2.447-7.164-4.535-2.064-2.088-3.708-4.8-4.932-8.137-1.225-3.335-1.836-7.38-1.836-12.132 0-4.943.684-9.083 2.052-12.42 1.368-3.336 3.144-6.023 5.328-8.063 2.184-2.04 4.619-3.504 7.308-4.393 2.688-.888 5.375-1.332 8.064-1.332 2.88 0 5.315.192 7.308.576 1.991.385 3.636.841 4.933 1.368l-1.944 8.352c-1.104-.527-2.412-.911-3.925-1.151-1.512-.24-3.348-.36-5.508-.36-3.984 0-7.188 1.42-9.611 4.257-2.425 2.839-3.637 7.239-3.637 13.203 0 2.598.289 4.967.864 7.106.576 2.142 1.452 3.97 2.628 5.483a12.12 12.12 0 004.393 3.536c1.752.842 3.779 1.262 6.084 1.262 2.16 0 3.983-.216 5.472-.647 1.487-.433 2.783-.983 3.888-1.656l2.016 8.016z"/><path d="M364.613 53.239h-15.48l-3.816 11.16h-9.863l18.145-50.76h7.271l18.145 50.76h-10.369l-4.033-11.16zm-12.96-7.92h10.8l-3.744-11.231-1.512-7.921h-.36l-1.512 7.992-3.672 11.16zm70.776-7.055l1.08-10.008h-.433l-3.096 8.063-10.728 18.792h-3.169L394.78 36.247l-3.168-7.991h-.36l1.44 9.936V64.4h-9.361V14h9l13.465 23.04 2.376 5.761h.288l2.16-5.904 12.744-22.896h8.928v50.4h-9.864V38.264zm18.503-23.761a67.975 67.975 0 016.66-.899 81.45 81.45 0 017.235-.324c2.495 0 5.004.205 7.524.612 2.52.408 4.788 1.224 6.804 2.448s3.66 2.928 4.932 5.111c1.271 2.185 1.908 5.029 1.908 8.532 0 3.168-.552 5.845-1.656 8.028-1.104 2.185-2.568 3.972-4.392 5.363-1.824 1.394-3.9 2.401-6.228 3.024a27.839 27.839 0 01-7.236.936h-1.152a39.698 39.698 0 01-3.347-.143 11.889 11.889 0 01-1.188-.144v17.352h-9.863V14.503zm14.687 7.272c-.961 0-1.872.036-2.735.108-.864.071-1.561.156-2.089.252v16.344c.191.048.479.097.864.144.384.049.792.085 1.225.108.432.024.852.036 1.26.036h.899c1.296 0 2.58-.119 3.853-.36 1.271-.239 2.412-.684 3.42-1.332 1.008-.647 1.812-1.548 2.412-2.7.6-1.151.899-2.664.899-4.535 0-1.584-.288-2.892-.863-3.925-.576-1.031-1.332-1.859-2.269-2.483-.936-.623-2.005-1.056-3.204-1.296-1.2-.24-2.424-.361-3.672-.361z"/></g><path fill="#FE4918" d="M5 9.175h18V68H5z"/></svg>